<svg width="50" height="50" viewBox="0 0 50 50" fill="none" xmlns="http://www.w3.org/2000/svg">
<circle cx="25" cy="25" r="25" fill="white"/>
<path d="M36.6602 19.1527C37.8091 18.291 38.8431 17.257 39.6473 16.0506C38.6133 16.5102 37.4069 16.8549 36.2006 16.9698C37.4644 16.223 38.3835 15.0741 38.8431 13.638C37.6942 14.3273 36.3729 14.8443 35.0517 15.1315C33.9028 13.9252 32.3518 13.2358 30.6284 13.2358C27.2966 13.2358 24.5967 15.9357 24.5967 19.2675C24.5967 19.7271 24.6542 20.1867 24.7691 20.6462C19.7714 20.359 15.2907 17.9463 12.3035 14.3273C11.7865 15.189 11.4993 16.223 11.4993 17.3719C11.4993 19.4399 12.5333 21.2781 14.1992 22.3696C13.2227 22.3121 12.2461 22.0823 11.4419 21.6228V21.6802C11.4419 24.6099 13.5099 27.0226 16.2672 27.5971C15.8077 27.7119 15.2332 27.8268 14.7162 27.8268C14.3141 27.8268 13.9694 27.7694 13.5673 27.7119C14.3141 30.1246 16.5545 31.848 19.1969 31.9054C17.1289 33.5139 14.5439 34.4904 11.7291 34.4904C11.2121 34.4904 10.7525 34.433 10.293 34.3755C12.9354 36.0989 16.0949 37.0755 19.5416 37.0755C30.6284 37.0755 36.6602 27.9417 36.6602 19.9569C36.6602 19.6697 36.6602 19.4399 36.6602 19.1527Z" fill="black"/>
</svg>
