<svg width="50" height="50" viewBox="0 0 50 50" fill="none" xmlns="http://www.w3.org/2000/svg">
<circle cx="25" cy="25" r="25" fill="white"/>
<path d="M13.7026 36.7646H18.8428V20.124H13.7026V36.7646Z" fill="black"/>
<path d="M13.2353 14.8115C13.2353 16.4521 14.5593 17.7803 16.2727 17.7803C17.9082 17.7803 19.2322 16.4521 19.2322 14.8115C19.2322 13.1709 17.9082 11.7646 16.2727 11.7646C14.5593 11.7646 13.2353 13.1709 13.2353 14.8115Z" fill="black"/>
<path d="M33.0172 36.7646H38.2353V27.624C38.2353 23.1709 37.2228 19.6553 32.0048 19.6553C29.5126 19.6553 27.7992 21.0615 27.0982 22.3896H27.0203V20.124H22.1138V36.7646H27.254V28.5615C27.254 26.374 27.6434 24.2646 30.3692 24.2646C33.0172 24.2646 33.0172 26.7646 33.0172 28.6396V36.7646Z" fill="black"/>
</svg>
