<svg width="21" height="20" viewBox="0 0 21 20" fill="none" xmlns="http://www.w3.org/2000/svg">
<path fill-rule="evenodd" clip-rule="evenodd" d="M10.5 3.125C8.08375 3.125 6.125 5.08375 6.125 7.5C6.125 9.91625 8.08375 11.875 10.5 11.875C12.9162 11.875 14.875 9.91625 14.875 7.5C14.875 5.08375 12.9162 3.125 10.5 3.125ZM4.875 7.5C4.875 4.3934 7.3934 1.875 10.5 1.875C13.6066 1.875 16.125 4.3934 16.125 7.5C16.125 10.6066 13.6066 13.125 10.5 13.125C7.3934 13.125 4.875 10.6066 4.875 7.5Z" fill="black"/>
<path fill-rule="evenodd" clip-rule="evenodd" d="M10.5001 13.1244C9.07374 13.1244 7.67251 13.4999 6.43728 14.2131C5.20205 14.9264 4.17634 15.9522 3.46327 17.1875C3.29071 17.4865 2.90848 17.5889 2.60953 17.4164C2.31058 17.2438 2.20812 16.8616 2.38068 16.5626C3.20345 15.1373 4.38696 13.9536 5.81223 13.1306C7.2375 12.3077 8.8543 11.8744 10.5001 11.8744C12.1459 11.8744 13.7627 12.3077 15.188 13.1306C16.6132 13.9536 17.7968 15.1373 18.6195 16.5626C18.7921 16.8616 18.6896 17.2438 18.3907 17.4164C18.0917 17.5889 17.7095 17.4865 17.5369 17.1875C16.8239 15.9522 15.7982 14.9264 14.5629 14.2131C13.3277 13.4999 11.9265 13.1244 10.5001 13.1244Z" fill="black"/>
</svg>
